<svg width="25" height="24" viewBox="0 0 25 24" fill="none" xmlns="http://www.w3.org/2000/svg">
<path fill-rule="evenodd" clip-rule="evenodd" d="M7.9 10.1L7.9 10.8C7.9 11.3523 8.34771 11.8 8.9 11.8C9.45228 11.8 9.9 11.3523 9.9 10.8L9.9 10.1L15.8333 10.1L15.8333 10.8C15.8333 11.3523 16.281 11.8 16.8333 11.8C17.3856 11.8 17.8333 11.3523 17.8333 10.8L17.8333 10.1L19.2333 10.1L19.2333 19C19.2333 19.5523 18.7856 20 18.2333 20L7.5 20C6.94771 20 6.5 19.5523 6.5 19L6.5 10.1L7.9 10.1ZM17.8233 8.1L21.2333 8.1L21.2333 19C21.2333 20.6569 19.8902 22 18.2333 22L7.5 22C5.84314 22 4.5 20.6569 4.5 19L4.5 8.1L7.91004 8.1C7.94026 7.3226 8.05095 6.36345 8.44255 5.49961C8.75143 4.81826 9.24178 4.17203 10.0029 3.70533C10.7583 3.24208 11.7081 3 12.8667 3C14.0253 3 14.975 3.24208 15.7305 3.70533C16.4916 4.17204 16.9819 4.81826 17.2908 5.49961C17.6824 6.36345 17.7931 7.3226 17.8233 8.1ZM15.8198 8.1C15.7926 7.48102 15.7113 6.85945 15.4692 6.32539C15.2964 5.94424 15.0501 5.63422 14.685 5.4103C14.3142 5.18292 13.7481 5 12.8667 5C11.9853 5 11.4192 5.18292 11.0484 5.4103C10.6832 5.63422 10.4369 5.94424 10.2641 6.32539C10.022 6.85945 9.94075 7.48102 9.91356 8.1L15.8198 8.1Z" fill="#C0CCDA"/>
</svg>
