<svg width="25" height="24" viewBox="0 0 25 24" fill="none" xmlns="http://www.w3.org/2000/svg">
<path fill-rule="evenodd" clip-rule="evenodd" d="M7.70711 3.28498C8.09763 3.66495 8.09763 4.281 7.70711 4.66097L6.91421 5.43243L12.5 5.43243C16.9183 5.43243 20.5 8.91735 20.5 13.2162C20.5 17.5151 16.9183 21 12.5 21C8.08172 21 4.5 17.5151 4.5 13.2162L4.5 11.7568C4.5 11.2194 4.94771 10.7838 5.5 10.7838C6.05228 10.7838 6.5 11.2194 6.5 11.7568L6.5 13.2162C6.5 16.4404 9.18629 19.0541 12.5 19.0541C15.8137 19.0541 18.5 16.4404 18.5 13.2162C18.5 9.99207 15.8137 7.37838 12.5 7.37838L6.91421 7.37838L7.70711 8.14984C8.09763 8.52981 8.09763 9.14587 7.70711 9.52583C7.31658 9.9058 6.68342 9.9058 6.29289 9.52583L3.79289 7.0934C3.40237 6.71343 3.40237 6.09738 3.79289 5.71741L6.29289 3.28498C6.68342 2.90501 7.31658 2.90501 7.70711 3.28498ZM11.5 8.35135C12.0523 8.35135 12.5 8.78697 12.5 9.32433L12.5 13.2162L15.5 13.2162C16.0523 13.2162 16.5 13.6518 16.5 14.1892C16.5 14.7266 16.0523 15.1622 15.5 15.1622L11.5 15.1622C10.9477 15.1622 10.5 14.7265 10.5 14.1892L10.5 9.32433C10.5 8.78697 10.9477 8.35135 11.5 8.35135Z" fill="#C0CCDA"/>
</svg>
