<svg width="25" height="24" viewBox="0 0 25 24" fill="none" xmlns="http://www.w3.org/2000/svg">
<path fill-rule="evenodd" clip-rule="evenodd" d="M12.5 5C10.8124 5 9.50001 6.31637 9.50001 7.8726C9.50001 9.42884 10.8124 10.7452 12.5 10.7452C14.1876 10.7452 15.5 9.42884 15.5 7.87261C15.5 6.31637 14.1876 5 12.5 5ZM7.50001 7.8726C7.50001 5.15128 9.76934 3 12.5 3C15.2307 3 17.5 5.15128 17.5 7.87261C17.5 10.5939 15.2307 12.7452 12.5 12.7452C9.76934 12.7452 7.50001 10.5939 7.50001 7.8726ZM5.02927 13.6962C5.13968 13.2498 5.54022 12.9363 6.00001 12.9363L6.00001 13.9363C6.00001 12.9363 5.99994 12.9363 6.00001 12.9363L17 12.9363C18.1452 12.9363 18.9352 13.3802 19.4346 13.8772C19.675 14.1165 19.8374 14.3567 19.9417 14.5421C19.9942 14.6353 20.0331 14.7165 20.0606 14.7796C20.0744 14.8112 20.0855 14.8385 20.0941 14.8608C20.0984 14.8719 20.1021 14.8818 20.1052 14.8904L20.1094 14.9022L20.1113 14.9074L20.1121 14.9098L20.1125 14.9109C20.1127 14.9115 20.1129 14.912 19.1667 15.2356L20.1129 14.912C20.119 14.9299 20.1246 14.9479 20.1297 14.9661L21.463 19.7305C21.5473 20.0317 21.4858 20.3551 21.2967 20.6043C21.1077 20.8536 20.8128 21 20.5 21L4.50001 21C4.1925 21 3.9021 20.8585 3.71256 20.6164C3.52302 20.3742 3.45542 20.0583 3.52927 19.7598L5.02927 13.6962ZM18.2198 15.5629C18.2149 15.5528 18.208 15.5393 18.1989 15.5232C18.1661 15.4649 18.1097 15.3803 18.0238 15.2948C17.8703 15.1421 17.5771 14.9363 17 14.9363L6.78278 14.9363L5.77752 19L7.94445 19L7.94445 17L9.94445 17L9.94445 19L15.0556 19L15.0556 17L17.0556 17L17.0556 19L19.1817 19L18.2198 15.5629Z" fill="#C0CCDA"/>
</svg>
