<svg width="25" height="24" viewBox="0 0 25 24" fill="none" xmlns="http://www.w3.org/2000/svg">
<path fill-rule="evenodd" clip-rule="evenodd" d="M10.3002 3.72656C10.7458 3.26739 11.3509 3 11.9926 3C12.6342 3 13.2391 3.26722 13.6846 3.72613L21.5 11.252L19.9999 12.8788L19.5411 12.437L19.5411 22L4.45966 22L4.45966 12.4361L4.00169 12.878L2.5 11.2527L10.3002 3.72656ZM6.64705 10.3256L6.64705 19.7647L8.71931 19.7647L8.71931 16.0392C8.71931 15.422 9.20897 14.9216 9.813 14.9216L14.1878 14.9216C14.7918 14.9216 15.2815 15.422 15.2815 16.0392L15.2815 19.7647L17.3537 19.7647L17.3537 10.3307L12.1512 5.32084L12.134 5.30271C12.0862 5.25232 12.0343 5.2353 11.9926 5.2353C11.951 5.2353 11.8991 5.25232 11.8513 5.30271L11.8345 5.32045L6.64705 10.3256ZM13.0941 19.7647L13.0941 17.1569L10.9067 17.1569L10.9067 19.7647L13.0941 19.7647Z" fill="#333333"/>
</svg>
