<svg width="25" height="24" viewBox="0 0 25 24" fill="none" xmlns="http://www.w3.org/2000/svg">
<path d="M19.5 11.125L19.5 11.9803C19.5 16.1908 16.4375 19.4145 12.9375 19.4145L12.0625 19.4145M12.5 19.4145C12.5 19.6688 12.3041 19.875 12.0625 19.875C11.8209 19.875 11.625 19.6688 11.625 19.4145C11.625 19.1601 11.8209 18.9539 12.0625 18.9539C12.3041 18.9539 12.5 19.1601 12.5 19.4145Z" stroke="#C0CCDA"/>
<path d="M17.2747 8.9375L18.1876 8.9375C19.0626 8.9375 19.5 9.85907 19.5 10.6875C19.5 11.5625 19.0626 12.4375 18.1876 12.4375L17.2309 12.4375M7.50001 8.9375L6.81251 8.9375C5.9375 8.9375 5.5 9.85907 5.5 10.6875C5.5 11.5159 5.9375 12.4375 6.81251 12.4375L7.75871 12.4375M17.3125 11.5C17.3125 14.2614 15.2614 16.375 12.5 16.375C9.73858 16.375 7.68749 14.3239 7.68749 11.5625L7.68747 9.5C7.68747 7 9.90736 5 12.5 5C15.0927 5 17.3126 7 17.3126 9.5L17.3125 11.5Z" stroke="#C0CCDA" stroke-width="2"/>
</svg>
