<svg width="25" height="24" viewBox="0 0 25 24" fill="none" xmlns="http://www.w3.org/2000/svg">
<path fill-rule="evenodd" clip-rule="evenodd" d="M5.35756 8.08472C6.76719 10.4341 8.99709 12.5992 12.5001 12.5992C16.003 12.5992 18.233 10.4341 19.6426 8.08472L21.3576 9.11371C21.0124 9.68898 20.6117 10.2729 20.1498 10.8347L21.2072 11.8921L19.793 13.3063L18.7563 12.2696C18.1934 12.7554 17.5674 13.1937 16.8729 13.5555L17.4488 15.283L15.5514 15.9154L15.0063 14.2803C14.2377 14.4847 13.4037 14.5992 12.5001 14.5992C11.5964 14.5992 10.7625 14.4847 9.99381 14.2803L9.44875 15.9154L7.55139 15.283L8.12722 13.5555C7.43278 13.1937 6.80674 12.7554 6.24388 12.2696L5.20718 13.3063L3.79296 11.8921L4.85037 10.8347C4.38847 10.2729 3.98774 9.68898 3.64258 9.11371L5.35756 8.08472Z" fill="#6B6B6B"/>
</svg>
