<svg width="24" height="24" viewBox="0 0 24 24" fill="none" xmlns="http://www.w3.org/2000/svg">
<path fill-rule="evenodd" clip-rule="evenodd" d="M9.46855 5.35291C10.2172 4.9202 11.0813 4.67278 12.0001 4.67278C13.5652 4.67278 14.9623 5.38891 15.9093 6.50663C16.2024 6.85246 16.1596 7.37037 15.8137 7.6634C15.4679 7.95644 14.95 7.91363 14.6569 7.56779C13.9998 6.79225 13.0498 6.31429 12.0001 6.31429C11.38 6.31429 10.798 6.48047 10.29 6.77409C9.70846 7.11024 9.22193 7.61494 8.89431 8.22996C8.6812 8.63003 8.18411 8.78158 7.78405 8.56847C7.38398 8.35535 7.23243 7.85827 7.44554 7.4582C7.91412 6.57857 8.61524 5.84614 9.46855 5.35291ZM16.3775 8.66258C16.8308 8.66258 17.1982 9.03004 17.1982 9.48333V14.613C17.1982 16.6233 16.1308 18.3891 14.5317 19.3134C13.7831 19.7461 12.9189 19.9936 12.0001 19.9936C11.2335 19.9936 10.5043 19.8213 9.84827 19.5122C9.43821 19.319 9.26241 18.83 9.45561 18.4199C9.64881 18.0099 10.1378 17.8341 10.5479 18.0273C10.9911 18.236 11.4819 18.352 12.0001 18.352C12.6202 18.352 13.2023 18.1859 13.7102 17.8922C14.8026 17.2608 15.5567 16.0363 15.5567 14.613V9.48333C15.5567 9.03004 15.9242 8.66258 16.3775 8.66258ZM12.0001 9.68852C12.4534 9.68852 12.8209 10.056 12.8209 10.5093V13.7011C12.8209 14.1544 12.4534 14.5219 12.0001 14.5219C11.5469 14.5219 11.1794 14.1544 11.1794 13.7011V10.5093C11.1794 10.056 11.5469 9.68852 12.0001 9.68852ZM7.62276 9.80252C8.07605 9.80252 8.44351 10.17 8.44351 10.6233V14.613C8.44351 14.989 8.49093 15.171 8.53592 15.2956C8.56303 15.3707 8.59467 15.4399 8.64479 15.5485L8.64604 15.5512C8.69341 15.6538 8.75528 15.7878 8.81351 15.9479C8.96847 16.3739 8.74877 16.8448 8.32279 16.9998C7.89681 17.1547 7.42586 16.935 7.2709 16.5091C7.24674 16.4427 7.21293 16.3704 7.17441 16.2881C7.02408 15.967 6.802 15.4925 6.802 14.613V10.6233C6.802 10.17 7.16947 9.80252 7.62276 9.80252Z" fill="#636363"/>
<path fill-rule="evenodd" clip-rule="evenodd" d="M11.9999 3.761C11.4184 3.761 10.8571 3.84703 10.3263 4.00733C10.312 4.01166 10.2975 4.0154 10.2828 4.01854C9.96446 4.0868 9.56312 4.27347 9.16681 4.50611C8.78119 4.73247 8.44144 4.97775 8.25158 5.12999C7.49244 5.7626 6.88163 6.58398 6.48558 7.52743C6.13188 8.36995 5.98106 9.20938 5.98106 10.0534V14.6132C5.98106 16.0766 6.45825 17.4201 7.25629 18.4866C8.36223 19.9646 10.079 20.9057 11.9999 20.9057C12.8871 20.9057 13.7286 20.7053 14.4864 20.3454C15.758 19.6461 16.8857 18.412 17.3172 17.5642C17.7646 16.6853 18.0188 15.6814 18.0188 14.6132V10.0534C18.0188 8.98521 17.7646 7.9813 17.3172 7.10239C16.6797 5.84982 15.6509 4.85263 14.4075 4.2845C14.4054 4.28358 14.4033 4.28264 14.4012 4.28169C13.6658 3.94673 12.8541 3.761 11.9999 3.761ZM14.803 3.26244C13.9426 2.87902 12.9946 2.66666 11.9999 2.66666C11.3174 2.66666 10.6565 2.76663 10.0306 2.9535C9.54681 3.06163 9.0348 3.31465 8.61282 3.56235C8.17597 3.81879 7.79057 4.09653 7.56245 4.27987L7.5624 4.27981L7.55525 4.28575C6.65854 5.03184 5.94082 5.99789 5.47654 7.10384C5.06291 8.08915 4.88672 9.07362 4.88672 10.0534V14.6132C4.88672 16.3174 5.44311 17.89 6.38009 19.1422C7.67723 20.8757 9.70914 22 11.9999 22C13.0602 22 14.0673 21.7587 14.9718 21.3263C14.9807 21.322 14.9895 21.3175 14.9982 21.3128C16.4571 20.5153 17.7537 19.1192 18.2925 18.0606C18.8169 17.0303 19.1131 15.8565 19.1131 14.6132V10.0534C19.1131 8.8101 18.8169 7.63636 18.2925 6.606C17.5377 5.12305 16.3093 3.93555 14.8099 3.26544C14.8076 3.26443 14.8053 3.26342 14.803 3.26244ZM10.1365 7.85908C10.6762 7.39065 11.3665 7.22639 11.9999 7.22639C12.6333 7.22639 13.3237 7.39065 13.8633 7.85908C14.4172 8.33991 14.7358 9.07447 14.7358 10.0534V14.6132C14.7358 14.9154 14.4908 15.1604 14.1886 15.1604C13.8864 15.1604 13.6414 14.9154 13.6414 14.6132V10.0534C13.6414 9.32251 13.4128 8.91713 13.146 8.68549C12.8648 8.44146 12.4609 8.32073 11.9999 8.32073C11.539 8.32073 11.135 8.44146 10.8539 8.68549C10.5871 8.91713 10.3584 9.32251 10.3584 10.0534V14.6132C10.3584 15.3441 10.5871 15.7495 10.8539 15.9811C11.135 16.2252 11.539 16.3459 11.9999 16.3459C12.3021 16.3459 12.5471 16.5909 12.5471 16.8931C12.5471 17.1953 12.3021 17.4402 11.9999 17.4402C11.3665 17.4402 10.6762 17.276 10.1365 16.8076C9.58261 16.3267 9.26408 15.5922 9.26408 14.6132V10.0534C9.26408 9.07447 9.58261 8.33991 10.1365 7.85908Z" fill="#636363"/>
</svg>
