<svg width="24" height="24" viewBox="0 0 24 24" fill="none" xmlns="http://www.w3.org/2000/svg">
<path fill-rule="evenodd" clip-rule="evenodd" d="M12 3C12.5523 3 13 3.44772 13 4V11C13 11.5523 12.5523 12 12 12C11.4477 12 11 11.5523 11 11V4C11 3.44772 11.4477 3 12 3ZM15.5876 7.12092C15.9267 6.68502 16.555 6.60657 16.9909 6.9457C18.8171 8.36645 20 10.5607 20 13.0313C20 17.3266 16.4238 21 12 21C7.57625 21 4 17.3266 4 13.0313C4 10.6129 5.13298 8.45898 6.89399 7.03747C7.32374 6.69057 7.95333 6.75773 8.30023 7.18747C8.64712 7.61722 8.57996 8.24681 8.15022 8.59371C6.82912 9.66012 6 11.2555 6 13.0313C6 16.2324 8.69112 19 12 19C15.3089 19 18 16.2324 18 13.0313C18 11.2179 17.1345 9.59142 15.7628 8.52424C15.3269 8.18511 15.2484 7.55683 15.5876 7.12092Z" fill="#AD29FF"/>
</svg>
