<svg width="24" height="24" viewBox="0 0 24 24" fill="none" xmlns="http://www.w3.org/2000/svg">
<path fill-rule="evenodd" clip-rule="evenodd" d="M4.00002 2H12.0769C14.1403 2 15.9015 2.77215 17.1353 4.11035C18.3582 5.4366 19 7.24731 19 9.24511C19 11.1158 18.5544 12.5118 17.6823 13.7993C15.9805 16.3351 14.7024 18.2345 13.7498 19.6501C13.2317 20.4201 12.8099 21.047 12.4686 21.5553L11.4986 23L10.5313 21.5535C9.53135 20.0581 7.91531 17.649 5.31383 13.7921C4.43944 12.5275 4 11.1064 4 9.24511L4.00002 2ZM6.30771 4.22926L6.3077 9.24511C6.3077 10.7248 6.64372 11.7036 7.23574 12.5581L7.24365 12.5695C9.13686 15.3764 10.5091 17.418 11.5025 18.8995C11.604 18.7487 11.7096 18.5917 11.8195 18.4284C12.7706 17.015 14.0434 15.1235 15.7472 12.5846L15.7501 12.5803C16.3585 11.6828 16.6923 10.7172 16.6923 9.24511C16.6923 7.70113 16.1991 6.4466 15.4121 5.59307C14.6361 4.75147 13.5126 4.22926 12.0769 4.22926H6.30771ZM7.46153 9.24562C7.46153 7.09076 9.20838 5.34391 11.3632 5.34391H11.5C13.724 5.34391 15.5385 7.09815 15.5385 9.24562C15.5385 11.3936 13.7234 13.1463 11.5 13.1463C9.27655 13.1463 7.46153 11.3936 7.46153 9.24562ZM11.4417 7.57317C10.518 7.57317 9.76922 8.32195 9.76922 9.24562C9.76922 10.162 10.5507 10.9171 11.5 10.9171C12.4493 10.9171 13.2308 10.162 13.2308 9.24562C13.2308 8.32869 12.4488 7.57317 11.5 7.57317H11.4417Z" fill="#636363"/>
</svg>
