<svg width="25" height="24" viewBox="0 0 25 24" fill="none" xmlns="http://www.w3.org/2000/svg">
<g clip-path="url(#clip0_4597_1707)">
<path fill-rule="evenodd" clip-rule="evenodd" d="M7.24122 6.44677L6.58533 5.10533L8.74707 4L9.50735 5.55494C10.4262 5.30838 11.4221 5.17055 12.5 5.17055C13.578 5.17055 14.5738 5.30838 15.4927 5.55494L16.253 4L18.4147 5.10532L17.7588 6.44677C18.342 6.75556 18.8854 7.10993 19.3911 7.49801L20.7089 6.1504L22.4179 7.89807L21.182 9.16196C21.9837 10.0511 22.6525 11.0097 23.2039 11.9495L23.5769 12.5853L23.2039 13.2211C21.282 16.4967 17.9345 20 12.5 20C7.06557 20 3.71804 16.4967 1.79614 13.2211L1.4231 12.5853L1.79614 11.9495C2.34755 11.0097 3.01631 10.0511 3.81804 9.16196L2.58211 7.89807L4.29112 6.15041L5.60892 7.49801C6.11463 7.10993 6.65803 6.75556 7.24122 6.44677ZM4.26071 12.5853C5.97672 15.2318 8.57811 17.5284 12.5 17.5284C16.4219 17.5284 19.0233 15.2318 20.7393 12.5853C19.0233 9.93873 16.4219 7.64212 12.5 7.64212C8.57811 7.64212 5.97672 9.93873 4.26071 12.5853Z" fill="#AD29FF"/>
<path d="M16.3966 12.5502C16.3966 14.5894 14.7435 16.2425 12.7043 16.2425C10.6651 16.2425 9.01196 14.5894 9.01196 12.5502C9.01196 10.511 10.6651 8.85791 12.7043 8.85791C14.7435 8.85791 16.3966 10.511 16.3966 12.5502ZM10.6215 12.5502C10.6215 13.7005 11.554 14.633 12.7043 14.633C13.8545 14.633 14.787 13.7005 14.787 12.5502C14.787 11.3999 13.8545 10.4675 12.7043 10.4675C11.554 10.4675 10.6215 11.3999 10.6215 12.5502Z" fill="#AD29FF"/>
</g>
<defs>
<clipPath id="clip0_4597_1707">
<rect width="24" height="24" fill="white" transform="translate(0.5)"/>
</clipPath>
</defs>
</svg>
