<svg width="80" height="80" viewBox="0 0 80 80" fill="none" xmlns="http://www.w3.org/2000/svg">
<g opacity="0.25" clip-path="url(#clip0)">
<path d="M54.6339 15.3661C55.1221 15.8543 55.1221 16.6457 54.6339 17.1339C54.1457 17.6221 53.3543 17.6221 52.8661 17.1339C52.378 16.6457 52.378 15.8543 52.8661 15.3661C53.3543 14.878 54.1457 14.878 54.6339 15.3661Z" fill="#6D87A4"/>
<path d="M56.2503 9.99996H49.7867C49.2703 8.54484 47.8799 7.5 46.2503 7.5H33.7503C32.1442 7.5 30.7787 8.51956 30.2451 9.94202L32.2564 11.9533C32.3986 11.7503 32.5004 11.5168 32.5004 11.25C32.5004 10.5604 33.0607 10 33.7503 10H46.2503C46.94 10 47.5003 10.5604 47.5003 11.25C47.5003 11.9409 48.0593 12.5 48.7503 12.5H56.2502C56.9399 12.5 57.5002 13.0603 57.5002 13.75V36.2499C57.5002 36.5164 57.3981 36.7498 57.2557 36.9527L59.0376 38.7345C59.6293 38.0714 60.0002 37.2067 60.0002 36.2499V13.7499C60.0002 11.682 58.3182 9.99996 56.2503 9.99996V9.99996Z" fill="#6D87A4"/>
<path d="M49.2057 28.9026C49.7164 27.7027 50.0003 26.3841 50.0003 25C50.0003 19.4861 45.5142 15 40.0003 15C38.6162 15 37.2977 15.2839 36.0977 15.7946L38.0826 17.7795C38.6984 17.6155 39.3333 17.5 40.0003 17.5C44.136 17.5 47.5002 20.8642 47.5002 24.9999C47.5002 25.6669 47.3847 26.3018 47.2207 26.9176C47.2208 26.9177 49.2057 28.9026 49.2057 28.9026Z" fill="#6D87A4"/>
<path d="M20 6.7677L23.2799 10.0476C21.4357 10.2816 20 11.8432 20 13.7501V36.2501C20 38.3179 21.6822 40.0001 23.75 40.0001H53.2325L58.2325 45.0001L60.0001 43.2325L21.7676 5L20 6.7677ZM23.75 37.5001C23.0604 37.5001 22.5 36.9398 22.5 36.2502V13.7501C22.5 13.0604 23.0604 12.5001 23.75 12.5001H25.7324L32.156 18.9237C30.8361 20.6128 30.0001 22.6952 30.0001 25.0002C30.0001 30.5141 34.4862 35.0002 40.0001 35.0002C42.3054 35.0002 44.3929 34.17 46.083 32.8507L50.7325 37.5002L23.75 37.5001ZM33.9303 20.6981L44.3087 31.0765C43.0868 31.9533 41.6159 32.5001 40 32.5001C35.8643 32.5001 32.5 29.1359 32.5 25.0002C32.5 23.3846 33.0533 21.9194 33.9303 20.6981Z" fill="#6D87A4"/>
</g>
<path opacity="0.25" d="M18.8879 50.436V52.284H22.5959V54.12H18.8879V57H16.5119V48.6H23.0999V50.436H18.8879ZM27.2265 57.108C26.5305 57.108 25.9025 56.964 25.3425 56.676C24.7825 56.388 24.3425 55.988 24.0225 55.476C23.7105 54.964 23.5545 54.384 23.5545 53.736C23.5545 53.096 23.7105 52.52 24.0225 52.008C24.3425 51.496 24.7785 51.1 25.3305 50.82C25.8905 50.532 26.5225 50.388 27.2265 50.388C27.9305 50.388 28.5625 50.532 29.1225 50.82C29.6825 51.1 30.1185 51.496 30.4305 52.008C30.7425 52.512 30.8985 53.088 30.8985 53.736C30.8985 54.384 30.7425 54.964 30.4305 55.476C30.1185 55.988 29.6825 56.388 29.1225 56.676C28.5625 56.964 27.9305 57.108 27.2265 57.108ZM27.2265 55.296C27.6265 55.296 27.9545 55.16 28.2105 54.888C28.4665 54.608 28.5945 54.224 28.5945 53.736C28.5945 53.256 28.4665 52.88 28.2105 52.608C27.9545 52.336 27.6265 52.2 27.2265 52.2C26.8265 52.2 26.4985 52.336 26.2425 52.608C25.9865 52.88 25.8585 53.256 25.8585 53.736C25.8585 54.224 25.9865 54.608 26.2425 54.888C26.4985 55.16 26.8265 55.296 27.2265 55.296ZM36.4427 56.736C36.2507 56.856 36.0147 56.948 35.7347 57.012C35.4627 57.076 35.1707 57.108 34.8587 57.108C34.0107 57.108 33.3587 56.9 32.9027 56.484C32.4467 56.068 32.2187 55.448 32.2187 54.624V52.44H31.2707V50.736H32.2187V49.044H34.4987V50.736H35.9867V52.44H34.4987V54.6C34.4987 54.832 34.5587 55.016 34.6787 55.152C34.8067 55.28 34.9747 55.344 35.1827 55.344C35.4467 55.344 35.6787 55.276 35.8787 55.14L36.4427 56.736ZM40.3983 57.108C39.7023 57.108 39.0743 56.964 38.5143 56.676C37.9543 56.388 37.5143 55.988 37.1943 55.476C36.8823 54.964 36.7263 54.384 36.7263 53.736C36.7263 53.096 36.8823 52.52 37.1943 52.008C37.5143 51.496 37.9503 51.1 38.5023 50.82C39.0623 50.532 39.6943 50.388 40.3983 50.388C41.1023 50.388 41.7343 50.532 42.2943 50.82C42.8543 51.1 43.2903 51.496 43.6023 52.008C43.9143 52.512 44.0703 53.088 44.0703 53.736C44.0703 54.384 43.9143 54.964 43.6023 55.476C43.2903 55.988 42.8543 56.388 42.2943 56.676C41.7343 56.964 41.1023 57.108 40.3983 57.108ZM40.3983 55.296C40.7983 55.296 41.1263 55.16 41.3823 54.888C41.6383 54.608 41.7663 54.224 41.7663 53.736C41.7663 53.256 41.6383 52.88 41.3823 52.608C41.1263 52.336 40.7983 52.2 40.3983 52.2C39.9983 52.2 39.6703 52.336 39.4143 52.608C39.1583 52.88 39.0303 53.256 39.0303 53.736C39.0303 54.224 39.1583 54.608 39.4143 54.888C39.6703 55.16 39.9983 55.296 40.3983 55.296ZM52.8547 50.388C53.6627 50.388 54.3107 50.628 54.7987 51.108C55.2947 51.588 55.5427 52.312 55.5427 53.28V57H53.2627V53.652C53.2627 52.764 52.9067 52.32 52.1947 52.32C51.8027 52.32 51.4867 52.448 51.2467 52.704C51.0147 52.96 50.8987 53.344 50.8987 53.856V57H48.6187V50.496H50.7907V51.204C51.0467 50.94 51.3507 50.74 51.7027 50.604C52.0547 50.46 52.4387 50.388 52.8547 50.388ZM60.3319 57.108C59.6359 57.108 59.0079 56.964 58.4479 56.676C57.8879 56.388 57.4479 55.988 57.1279 55.476C56.8159 54.964 56.6599 54.384 56.6599 53.736C56.6599 53.096 56.8159 52.52 57.1279 52.008C57.4479 51.496 57.8839 51.1 58.4359 50.82C58.9959 50.532 59.6279 50.388 60.3319 50.388C61.0359 50.388 61.6679 50.532 62.2279 50.82C62.7879 51.1 63.2239 51.496 63.5359 52.008C63.8479 52.512 64.0039 53.088 64.0039 53.736C64.0039 54.384 63.8479 54.964 63.5359 55.476C63.2239 55.988 62.7879 56.388 62.2279 56.676C61.6679 56.964 61.0359 57.108 60.3319 57.108ZM60.3319 55.296C60.7319 55.296 61.0599 55.16 61.3159 54.888C61.5719 54.608 61.6999 54.224 61.6999 53.736C61.6999 53.256 61.5719 52.88 61.3159 52.608C61.0599 52.336 60.7319 52.2 60.3319 52.2C59.9319 52.2 59.6039 52.336 59.3479 52.608C59.0919 52.88 58.9639 53.256 58.9639 53.736C58.9639 54.224 59.0919 54.608 59.3479 54.888C59.6039 55.16 59.9319 55.296 60.3319 55.296ZM14.1635 63.096V72H11.9915V71.352C11.5675 71.856 10.9315 72.108 10.0835 72.108C9.49153 72.108 8.95153 71.972 8.46353 71.7C7.97553 71.42 7.58753 71.024 7.29953 70.512C7.01953 70 6.87953 69.408 6.87953 68.736C6.87953 68.064 7.01953 67.476 7.29953 66.972C7.58753 66.46 7.97553 66.068 8.46353 65.796C8.95153 65.524 9.49153 65.388 10.0835 65.388C10.8595 65.388 11.4595 65.612 11.8835 66.06V63.096H14.1635ZM10.5635 70.296C10.9555 70.296 11.2795 70.16 11.5355 69.888C11.7915 69.608 11.9195 69.224 11.9195 68.736C11.9195 68.256 11.7915 67.88 11.5355 67.608C11.2875 67.336 10.9635 67.2 10.5635 67.2C10.1635 67.2 9.83553 67.336 9.57953 67.608C9.32353 67.88 9.19553 68.256 9.19553 68.736C9.19553 69.224 9.32353 69.608 9.57953 69.888C9.83553 70.16 10.1635 70.296 10.5635 70.296ZM15.6304 65.496H17.9104V72H15.6304V65.496ZM16.7704 64.776C16.3544 64.776 16.0184 64.66 15.7624 64.428C15.5064 64.196 15.3784 63.908 15.3784 63.564C15.3784 63.22 15.5064 62.932 15.7624 62.7C16.0184 62.468 16.3544 62.352 16.7704 62.352C17.1864 62.352 17.5224 62.464 17.7784 62.688C18.0344 62.904 18.1624 63.184 18.1624 63.528C18.1624 63.888 18.0344 64.188 17.7784 64.428C17.5224 64.66 17.1864 64.776 16.7704 64.776ZM21.7562 72.108C21.2122 72.108 20.6762 72.048 20.1482 71.928C19.6202 71.8 19.1962 71.636 18.8762 71.436L19.5602 69.876C19.8562 70.06 20.2082 70.208 20.6162 70.32C21.0242 70.424 21.4282 70.476 21.8282 70.476C22.1962 70.476 22.4562 70.44 22.6082 70.368C22.7682 70.288 22.8482 70.176 22.8482 70.032C22.8482 69.888 22.7522 69.788 22.5602 69.732C22.3762 69.668 22.0802 69.608 21.6722 69.552C21.1522 69.488 20.7082 69.404 20.3402 69.3C19.9802 69.196 19.6682 69.004 19.4042 68.724C19.1402 68.444 19.0082 68.052 19.0082 67.548C19.0082 67.132 19.1322 66.764 19.3802 66.444C19.6282 66.116 19.9882 65.86 20.4602 65.676C20.9402 65.484 21.5122 65.388 22.1762 65.388C22.6482 65.388 23.1162 65.436 23.5802 65.532C24.0442 65.628 24.4322 65.764 24.7442 65.94L24.0602 67.488C23.4842 67.168 22.8602 67.008 22.1882 67.008C21.8282 67.008 21.5642 67.052 21.3962 67.14C21.2282 67.22 21.1442 67.328 21.1442 67.464C21.1442 67.616 21.2362 67.724 21.4202 67.788C21.6042 67.844 21.9082 67.904 22.3322 67.968C22.8682 68.048 23.3122 68.14 23.6642 68.244C24.0162 68.348 24.3202 68.54 24.5762 68.82C24.8402 69.092 24.9722 69.476 24.9722 69.972C24.9722 70.38 24.8482 70.748 24.6002 71.076C24.3522 71.396 23.9842 71.648 23.4962 71.832C23.0162 72.016 22.4362 72.108 21.7562 72.108ZM30.0467 65.388C30.6387 65.388 31.1747 65.528 31.6547 65.808C32.1427 66.08 32.5267 66.472 32.8067 66.984C33.0947 67.488 33.2387 68.076 33.2387 68.748C33.2387 69.42 33.0947 70.012 32.8067 70.524C32.5267 71.028 32.1427 71.42 31.6547 71.7C31.1747 71.972 30.6387 72.108 30.0467 72.108C29.2867 72.108 28.6827 71.88 28.2347 71.424V74.328H25.9547V65.496H28.1267V66.144C28.5507 65.64 29.1907 65.388 30.0467 65.388ZM29.5667 70.296C29.9667 70.296 30.2947 70.16 30.5507 69.888C30.8067 69.608 30.9347 69.228 30.9347 68.748C30.9347 68.268 30.8067 67.892 30.5507 67.62C30.2947 67.34 29.9667 67.2 29.5667 67.2C29.1667 67.2 28.8387 67.34 28.5827 67.62C28.3267 67.892 28.1987 68.268 28.1987 68.748C28.1987 69.228 28.3267 69.608 28.5827 69.888C28.8387 70.16 29.1667 70.296 29.5667 70.296ZM37.5624 72.108C36.8664 72.108 36.2384 71.964 35.6784 71.676C35.1184 71.388 34.6784 70.988 34.3584 70.476C34.0464 69.964 33.8904 69.384 33.8904 68.736C33.8904 68.096 34.0464 67.52 34.3584 67.008C34.6784 66.496 35.1144 66.1 35.6664 65.82C36.2264 65.532 36.8584 65.388 37.5624 65.388C38.2664 65.388 38.8984 65.532 39.4584 65.82C40.0184 66.1 40.4544 66.496 40.7664 67.008C41.0784 67.512 41.2344 68.088 41.2344 68.736C41.2344 69.384 41.0784 69.964 40.7664 70.476C40.4544 70.988 40.0184 71.388 39.4584 71.676C38.8984 71.964 38.2664 72.108 37.5624 72.108ZM37.5624 70.296C37.9624 70.296 38.2904 70.16 38.5464 69.888C38.8024 69.608 38.9304 69.224 38.9304 68.736C38.9304 68.256 38.8024 67.88 38.5464 67.608C38.2904 67.336 37.9624 67.2 37.5624 67.2C37.1624 67.2 36.8344 67.336 36.5784 67.608C36.3224 67.88 36.1944 68.256 36.1944 68.736C36.1944 69.224 36.3224 69.608 36.5784 69.888C36.8344 70.16 37.1624 70.296 37.5624 70.296ZM46.5266 65.388C47.3346 65.388 47.9826 65.628 48.4706 66.108C48.9666 66.588 49.2146 67.312 49.2146 68.28V72H46.9346V68.652C46.9346 67.764 46.5786 67.32 45.8666 67.32C45.4746 67.32 45.1586 67.448 44.9186 67.704C44.6866 67.96 44.5706 68.344 44.5706 68.856V72H42.2906V65.496H44.4626V66.204C44.7186 65.94 45.0226 65.74 45.3746 65.604C45.7266 65.46 46.1106 65.388 46.5266 65.388ZM50.6461 65.496H52.9261V72H50.6461V65.496ZM51.7861 64.776C51.3701 64.776 51.0341 64.66 50.7781 64.428C50.5221 64.196 50.3941 63.908 50.3941 63.564C50.3941 63.22 50.5221 62.932 50.7781 62.7C51.0341 62.468 51.3701 62.352 51.7861 62.352C52.2021 62.352 52.5381 62.464 52.7941 62.688C53.0501 62.904 53.1781 63.184 53.1781 63.528C53.1781 63.888 53.0501 64.188 52.7941 64.428C52.5381 64.66 52.2021 64.776 51.7861 64.776ZM58.4998 65.388C59.0918 65.388 59.6278 65.524 60.1078 65.796C60.5958 66.068 60.9798 66.46 61.2598 66.972C61.5478 67.476 61.6918 68.064 61.6918 68.736C61.6918 69.408 61.5478 70 61.2598 70.512C60.9798 71.024 60.5958 71.42 60.1078 71.7C59.6278 71.972 59.0918 72.108 58.4998 72.108C57.6438 72.108 57.0038 71.856 56.5798 71.352V72H54.4078V63.096H56.6878V66.06C57.1278 65.612 57.7318 65.388 58.4998 65.388ZM58.0198 70.296C58.4198 70.296 58.7478 70.16 59.0038 69.888C59.2598 69.608 59.3878 69.224 59.3878 68.736C59.3878 68.256 59.2598 67.88 59.0038 67.608C58.7478 67.336 58.4198 67.2 58.0198 67.2C57.6198 67.2 57.2918 67.336 57.0358 67.608C56.7798 67.88 56.6518 68.256 56.6518 68.736C56.6518 69.224 56.7798 69.608 57.0358 69.888C57.2918 70.16 57.6198 70.296 58.0198 70.296ZM62.7515 63.096H65.0315V72H62.7515V63.096ZM73.1613 68.76C73.1613 68.776 73.1493 68.964 73.1253 69.324H68.3973C68.4933 69.66 68.6773 69.92 68.9492 70.104C69.2293 70.28 69.5773 70.368 69.9933 70.368C70.3053 70.368 70.5733 70.324 70.7973 70.236C71.0293 70.148 71.2613 70.004 71.4933 69.804L72.6933 71.052C72.0613 71.756 71.1373 72.108 69.9213 72.108C69.1613 72.108 68.4933 71.964 67.9173 71.676C67.3413 71.388 66.8933 70.988 66.5732 70.476C66.2613 69.964 66.1053 69.384 66.1053 68.736C66.1053 68.096 66.2573 67.524 66.5613 67.02C66.8733 66.508 67.3013 66.108 67.8453 65.82C68.3893 65.532 69.0013 65.388 69.6813 65.388C70.3293 65.388 70.9173 65.524 71.4453 65.796C71.9733 66.06 72.3893 66.448 72.6933 66.96C73.0053 67.464 73.1613 68.064 73.1613 68.76ZM69.6933 67.008C69.3413 67.008 69.0453 67.108 68.8053 67.308C68.5733 67.508 68.4253 67.78 68.3613 68.124H71.0253C70.9613 67.78 70.8093 67.508 70.5693 67.308C70.3373 67.108 70.0453 67.008 69.6933 67.008Z" fill="#6D87A4"/>
<defs>
<clipPath id="clip0">
<rect width="40" height="40" fill="white" transform="translate(20 5)"/>
</clipPath>
</defs>
</svg>
