<svg width="24" height="24" viewBox="0 0 24 24" fill="none" xmlns="http://www.w3.org/2000/svg">
<path fill-rule="evenodd" clip-rule="evenodd" d="M2 4C2 3.44772 2.44772 3 3 3H5.58699C6.30619 3 6.92418 3.51047 7.06 4.21673L7.24996 5.20453H20.5C20.5136 5.20453 20.5275 5.20452 20.5417 5.2045C20.7096 5.20435 20.9143 5.20415 21.0773 5.22516C21.2107 5.24235 21.8166 5.32839 22.0502 5.95431C22.1372 6.18756 22.1254 6.39588 22.1161 6.49338C22.1061 6.59854 22.0848 6.69736 22.072 6.75538C22.0642 6.79077 22.0567 6.82381 22.0493 6.85608C22.0273 6.95205 22.007 7.04115 21.9863 7.16468C21.983 7.18486 21.979 7.20493 21.9744 7.22486L20.5638 13.3373C20.4068 14.0179 19.8007 14.5 19.1022 14.5H9.03755L9.32602 16H18C18.8717 16 19.5131 16.4468 19.9059 16.9378C20.2733 17.3971 20.5 17.9868 20.5 18.5C20.5 19.0132 20.2733 19.6029 19.9059 20.0622C19.5131 20.5532 18.8717 21 18 21C17.1283 21 16.4869 20.5532 16.0941 20.0622C15.7267 19.6029 15.5 19.0132 15.5 18.5C15.5 18.3529 15.5148 18.1823 15.551 18H12.4355C12.4776 18.1699 12.5 18.3387 12.5 18.5C12.5 19.0132 12.2733 19.6029 11.9059 20.0622C11.5131 20.5532 10.8717 21 10 21C9.12826 21 8.48695 20.5532 8.09413 20.0622C7.72666 19.6029 7.5 19.0132 7.5 18.5C7.5 18.2047 7.55954 17.8146 7.73246 17.4255C7.58889 17.2426 7.48636 17.0243 7.44 16.7833L5.17398 5H3C2.44772 5 2 4.55228 2 4ZM10 18C9.84276 18 9.75878 18.0317 9.71784 18.0528C9.67609 18.0743 9.64244 18.1039 9.61153 18.1468C9.57802 18.1934 9.54817 18.2558 9.52715 18.3294C9.50742 18.3985 9.501 18.458 9.50011 18.4919C9.50095 18.4956 9.50553 18.5297 9.52824 18.5893C9.55637 18.6632 9.6001 18.7431 9.65587 18.8128C9.76305 18.9468 9.87174 19 10 19C10.1283 19 10.2369 18.9468 10.3441 18.8128C10.3999 18.7431 10.4436 18.6632 10.4718 18.5893C10.4889 18.5443 10.4957 18.5138 10.4984 18.5C10.4957 18.4862 10.4889 18.4557 10.4718 18.4107C10.4436 18.3368 10.3999 18.2569 10.3441 18.1872C10.2369 18.0532 10.1283 18 10 18ZM18 18C17.8428 18 17.7588 18.0317 17.7178 18.0528C17.6761 18.0743 17.6424 18.1039 17.6115 18.1468C17.578 18.1934 17.5482 18.2558 17.5271 18.3294C17.5074 18.3985 17.501 18.458 17.5001 18.4919C17.5009 18.4956 17.5055 18.5297 17.5282 18.5893C17.5564 18.6632 17.6001 18.7431 17.6559 18.8128C17.7631 18.9468 17.8717 19 18 19C18.1283 19 18.2369 18.9468 18.3441 18.8128C18.3999 18.7431 18.4436 18.6632 18.4718 18.5893C18.4889 18.5443 18.4957 18.5138 18.4984 18.5C18.4957 18.4862 18.4889 18.4557 18.4718 18.4107C18.4436 18.3368 18.3999 18.2569 18.3441 18.1872C18.2369 18.0532 18.1283 18 18 18ZM8.65294 12.5H18.7045L19.9265 7.20453H7.63458L8.65294 12.5Z" fill="#636363"/>
</svg>
