<svg width="24" height="24" viewBox="0 0 24 24" fill="none" xmlns="http://www.w3.org/2000/svg">
<path fill-rule="evenodd" clip-rule="evenodd" d="M12 5C10.3124 5 9.00001 6.31637 9.00001 7.8726C9.00001 9.42884 10.3124 10.7452 12 10.7452C13.6876 10.7452 15 9.42884 15 7.8726C15 6.31637 13.6876 5 12 5ZM7.00001 7.8726C7.00001 5.15128 9.26934 3 12 3C14.7307 3 17 5.15128 17 7.8726C17 10.5939 14.7307 12.7452 12 12.7452C9.26934 12.7452 7.00001 10.5939 7.00001 7.8726ZM4.52927 13.6961C4.63968 13.2498 5.04022 12.9363 5.50001 12.9363V13.9363C5.50001 12.9363 5.49994 12.9363 5.50001 12.9363H16.5C17.6452 12.9363 18.4352 13.3802 18.9346 13.8772C19.175 14.1165 19.3374 14.3567 19.4417 14.5421C19.4942 14.6353 19.5331 14.7165 19.5606 14.7796C19.5744 14.8112 19.5855 14.8385 19.5941 14.8608C19.5984 14.8719 19.6021 14.8818 19.6052 14.8903L19.6094 14.9022L19.6113 14.9074L19.6121 14.9097L19.6125 14.9109C19.6127 14.9115 19.6129 14.912 18.6667 15.2356L19.6129 14.912C19.619 14.9299 19.6246 14.9479 19.6297 14.9661L20.963 19.7305C21.0473 20.0317 20.9858 20.3551 20.7967 20.6043C20.6077 20.8536 20.3128 21 20 21H4.00001C3.69251 21 3.4021 20.8585 3.21257 20.6164C3.02303 20.3742 2.95543 20.0583 3.02927 19.7598L4.52927 13.6961ZM17.7198 15.5629C17.7149 15.5528 17.708 15.5393 17.6989 15.5232C17.6661 15.4649 17.6097 15.3803 17.5238 15.2948C17.3703 15.1421 17.0771 14.9363 16.5 14.9363H6.28278L5.27753 19H7.44445V17H9.44445V19H14.5556V17H16.5556V19H18.6817L17.7198 15.5629Z" fill="#636363"/>
</svg>
